<svg width="77" height="16" viewBox="0 0 77 16" fill="none" xmlns="http://www.w3.org/2000/svg">
<path d="M41.3604 7.77551C40.7098 7.77551 40.2409 7.99452 39.7654 8.21772V13.2667C40.2209 13.3113 40.4819 13.3113 40.9142 13.3113C42.4758 13.3113 42.6898 12.5771 42.6898 11.5519V9.14035C42.6898 8.38353 42.4451 7.77551 41.3604 7.77551ZM30.9905 7.50002C29.9072 7.50002 29.6597 8.11078 29.6597 8.86687V9.29171H32.3196V8.86687C32.3196 8.11078 32.0725 7.50002 30.9905 7.50002ZM10.9019 12.7555C10.9019 13.3537 11.1768 13.6645 11.7836 13.6645C12.4345 13.6645 12.8198 13.4466 13.2949 13.2228V12.025H11.8715C11.198 12.025 10.9019 12.1537 10.9019 12.7555ZM51.4478 7.77551C50.3628 7.77551 49.9867 8.38353 49.9867 9.14035V11.9029C49.9867 12.6619 50.3628 13.2718 51.4478 13.2718C52.53 13.2718 52.9089 12.6619 52.9089 11.9029V9.14035C52.9089 8.38353 52.53 7.77551 51.4478 7.77551ZM5.58397 15.853H2.39415V7.9256H0.800049V5.19391H2.39415V3.55377C2.39415 1.32517 3.29385 0 5.85069 0H7.97949V2.73223H6.6489C5.65341 2.73223 5.58788 3.11393 5.58788 3.82652L5.58397 5.19391H7.99444L7.71241 7.9256H5.58397V15.853ZM16.486 15.8735H13.8274L13.7122 15.1832C12.4983 15.8735 11.4148 15.9854 10.7001 15.9854C8.75046 15.9854 7.71241 14.648 7.71241 12.7987C7.71241 10.6167 8.92335 9.83794 11.0899 9.83794H13.2949V9.3663C13.2949 8.25282 13.1706 7.9256 11.5024 7.9256H8.77485L9.04157 5.19391H12.0231C15.6835 5.19391 16.486 6.38106 16.486 9.38824V15.8735ZM25.5268 8.12595C23.8723 7.83493 23.3972 7.77094 22.6012 7.77094C21.1712 7.77094 20.7391 8.09488 20.7391 9.34144V11.6996C20.7391 12.9464 21.1712 13.2718 22.6012 13.2718C23.3972 13.2718 23.8723 13.2067 25.5268 12.9142V15.5788C24.0776 15.9123 23.1336 16 22.3355 16C18.9107 16 17.5493 14.1507 17.5493 11.4795V9.56592C17.5493 6.89237 18.9107 5.03999 22.3355 5.03999C23.1336 5.03999 24.0776 5.1281 25.5268 5.463V8.12595ZM35.5095 11.4795H29.6597V11.6996C29.6597 12.9464 30.0922 13.2718 31.5218 13.2718C32.807 13.2718 33.5913 13.2067 35.2427 12.9142V15.5788C33.6501 15.9123 32.8201 16 31.2574 16C27.8324 16 26.4703 14.1507 26.4703 11.4795V9.29171C26.4703 6.95453 27.4809 5.03999 30.9905 5.03999C34.5001 5.03999 35.5095 6.93222 35.5095 9.29171V11.4795ZM45.8791 11.53C45.8791 14.112 45.1604 15.9949 40.8063 15.9949C39.2341 15.9949 38.3118 15.853 36.5765 15.5788V0.820255L39.7654 0.273845V5.43631C40.4545 5.17344 41.3466 5.03999 42.1585 5.03999C45.3478 5.03999 45.8791 6.50793 45.8791 8.86687V11.53ZM56.1014 11.5863C56.1014 13.8136 55.2058 15.9737 51.4585 15.9737C47.7094 15.9737 46.7971 13.8136 46.7971 11.5863V9.43577C46.7971 7.20735 47.7094 5.04694 51.4585 5.04694C55.2058 5.04694 56.1014 7.20735 56.1014 9.43577V11.5863ZM66.3167 11.5863C66.3167 13.8136 65.42 15.9737 61.6734 15.9737C57.9243 15.9737 57.012 13.8136 57.012 11.5863V9.43577C57.012 7.20735 57.9243 5.04694 61.6734 5.04694C65.42 5.04694 66.3167 7.20735 66.3167 9.43577V11.5863ZM76.8 15.853H73.3433L70.4201 10.8426V15.853H67.2301V0.820255L70.4201 0.273845V9.95128L73.3433 5.19391H76.8L73.6086 10.3856L76.8 15.853ZM61.6627 7.77551C60.5795 7.77551 60.2034 8.38353 60.2034 9.14035V11.9029C60.2034 12.6619 60.5795 13.2718 61.6627 13.2718C62.7446 13.2718 63.1274 12.6619 63.1274 11.9029V9.14035C63.1274 8.38353 62.7446 7.77551 61.6627 7.77551Z" fill="#4F87D2"/>
</svg>